<svg xmlns="http://www.w3.org/2000/svg" height="595pt" version="1.1" viewBox="0 -163 595.15637 595" width="595pt">
<g id="surface1">
<path d="M 105.566406 268.746094 C 138.929688 268.707031 167.207031 244.1875 171.972656 211.164062 L 432.625 211.164062 C 437.890625 247.84375 471.894531 273.304688 508.570312 268.035156 C 538.050781 263.804688 561.210938 240.644531 565.441406 211.164062 L 575.804688 211.164062 C 580.390625 211.164062 584.335938 207.917969 585.222656 203.421875 L 594.816406 154.707031 C 595.039062 153.589844 595.058594 152.441406 594.875 151.320312 C 589.226562 110.195312 555.859375 78.464844 514.503906 74.890625 L 423.074219 66.117188 L 366.128906 31.703125 C 335.875 11.03125 300.082031 -0.0078125 263.441406 0.0351562 L 221.214844 0.0351562 C 185.660156 0.078125 150.171875 3.140625 115.132812 9.191406 C 103.761719 11.109375 94.347656 12.960938 85.476562 14.949219 L 65.132812 19.46875 C 60.730469 20.429688 57.589844 24.320312 57.578125 28.824219 L 57.578125 42.085938 L 15.355469 63.203125 C 5.917969 67.875 -0.0390625 77.515625 0 88.046875 L 0 155.648438 C -0.0234375 163.019531 2.910156 170.097656 8.136719 175.292969 L 38.597656 205.753906 C 40.804688 241.128906 70.121094 268.703125 105.566406 268.746094 Z M 105.566406 249.550781 C 79.0625 249.550781 57.582031 228.070312 57.582031 201.566406 C 57.582031 175.066406 79.0625 153.582031 105.566406 153.582031 C 132.066406 153.582031 153.550781 175.066406 153.550781 201.566406 C 153.515625 228.054688 132.054688 249.519531 105.566406 249.550781 Z M 499.035156 249.550781 C 472.53125 249.550781 451.050781 228.070312 451.050781 201.566406 C 451.050781 175.066406 472.53125 153.582031 499.035156 153.582031 C 525.535156 153.582031 547.019531 175.066406 547.019531 201.566406 C 546.984375 228.054688 525.523438 249.519531 499.035156 249.550781 Z M 512.777344 93.976562 L 512.863281 93.976562 C 524.628906 94.9375 535.941406 98.941406 545.691406 105.601562 L 537.417969 105.601562 L 537.417969 124.792969 L 564.289062 124.792969 C 569.933594 133.242188 573.792969 142.75 575.632812 152.738281 L 567.917969 191.972656 L 565.527344 191.972656 C 565.421875 191.230469 565.238281 190.511719 565.105469 189.78125 C 564.941406 188.871094 564.789062 187.96875 564.589844 187.078125 C 564.320312 185.847656 563.992188 184.640625 563.628906 183.4375 C 563.386719 182.605469 563.175781 181.757812 562.910156 180.933594 C 562.496094 179.667969 562.027344 178.441406 561.535156 177.203125 C 561.257812 176.492188 561.007812 175.761719 560.703125 175.050781 C 560.085938 173.621094 559.394531 172.242188 558.6875 170.867188 C 558.4375 170.398438 558.234375 169.910156 557.976562 169.4375 C 556.976562 167.601562 555.898438 165.828125 554.730469 164.113281 C 554.53125 163.796875 554.289062 163.515625 554.070312 163.210938 C 553.109375 161.820312 552.152344 160.457031 551.027344 159.140625 C 550.585938 158.59375 550.066406 158.085938 549.625 157.550781 C 548.734375 156.523438 547.839844 155.503906 546.890625 154.546875 C 546.324219 153.96875 545.730469 153.429688 545.144531 152.875 C 544.234375 152.011719 543.3125 151.148438 542.351562 150.332031 C 541.699219 149.785156 541.039062 149.265625 540.367188 148.75 C 539.40625 147.992188 538.445312 147.261719 537.488281 146.558594 C 536.765625 146.050781 536.035156 145.601562 535.296875 145.101562 C 534.289062 144.449219 533.273438 143.824219 532.226562 143.183594 C 531.449219 142.738281 530.671875 142.316406 529.886719 141.90625 C 528.820312 141.347656 527.726562 140.832031 526.632812 140.332031 C 525.816406 139.96875 525.011719 139.601562 524.183594 139.265625 C 523.042969 138.804688 521.882812 138.390625 520.710938 138 C 519.886719 137.710938 519.070312 137.414062 518.226562 137.164062 C 516.988281 136.800781 515.730469 136.503906 514.472656 136.203125 C 513.65625 136.011719 512.851562 135.800781 512.027344 135.640625 C 510.617188 135.359375 509.148438 135.167969 507.746094 134.976562 C 507.035156 134.890625 506.347656 134.757812 505.625 134.6875 C 503.449219 134.515625 501.25 134.390625 499.03125 134.390625 C 496.816406 134.390625 494.617188 134.515625 492.457031 134.726562 C 491.738281 134.792969 491.046875 134.929688 490.339844 135.015625 C 488.898438 135.207031 487.457031 135.398438 486.058594 135.675781 C 485.230469 135.839844 484.425781 136.050781 483.621094 136.242188 C 482.355469 136.539062 481.097656 136.847656 479.859375 137.203125 C 479.015625 137.453125 478.199219 137.75 477.375 138.039062 C 476.203125 138.429688 475.042969 138.84375 473.898438 139.304688 C 473.074219 139.640625 472.269531 140.003906 471.453125 140.371094 C 470.359375 140.867188 469.261719 141.386719 468.199219 141.941406 C 467.410156 142.355469 466.632812 142.777344 465.859375 143.21875 C 464.8125 143.816406 463.792969 144.4375 462.777344 145.140625 C 462.046875 145.609375 461.320312 146.097656 460.597656 146.589844 C 459.640625 147.289062 458.679688 148.027344 457.71875 148.785156 C 457.046875 149.304688 456.386719 149.820312 455.734375 150.367188 C 454.773438 151.183594 453.8125 152.046875 452.941406 152.914062 C 452.355469 153.46875 451.761719 154.007812 451.195312 154.582031 C 450.234375 155.542969 449.351562 156.558594 448.460938 157.585938 C 448 158.125 447.5 158.632812 447.058594 159.179688 C 445.972656 160.503906 444.957031 161.886719 443.976562 163.285156 C 443.773438 163.585938 443.554688 163.851562 443.351562 164.140625 C 442.195312 165.867188 441.113281 167.644531 440.109375 169.476562 C 439.851562 169.9375 439.648438 170.4375 439.398438 170.90625 C 438.691406 172.277344 438 173.660156 437.382812 175.089844 C 437.078125 175.800781 436.828125 176.527344 436.550781 177.238281 C 436.058594 178.476562 435.589844 179.707031 435.175781 180.972656 C 434.90625 181.796875 434.695312 182.632812 434.457031 183.46875 C 434.121094 184.675781 433.796875 185.886719 433.496094 187.125 C 433.304688 188.007812 433.152344 188.90625 432.988281 189.8125 C 432.855469 190.539062 432.671875 191.257812 432.566406 192.007812 L 276.984375 192.007812 L 272.65625 163.21875 L 412.664062 163.21875 L 412.664062 143.984375 L 269.785156 143.984375 L 258.632812 69.6875 L 419.542969 85.253906 Z M 263.402344 19.230469 C 296.378906 19.214844 328.578125 29.199219 355.761719 47.867188 L 378.929688 61.859375 L 255.6875 50.023438 L 251.0625 19.230469 Z M 221.175781 19.230469 L 231.636719 19.230469 L 235.976562 48.132812 L 140.113281 38.929688 L 132.273438 25.878906 C 161.707031 21.480469 191.425781 19.257812 221.1875 19.230469 Z M 19.195312 105.601562 L 57.582031 105.601562 L 57.582031 86.40625 L 19.425781 86.40625 C 19.898438 83.796875 21.574219 81.5625 23.945312 80.371094 L 71.46875 56.65625 C 74.738281 55.023438 76.792969 51.671875 76.773438 48.019531 L 76.773438 36.503906 L 89.605469 33.625 C 96.4375 32.109375 103.632812 30.679688 111.898438 29.191406 L 126.128906 52.914062 C 127.695312 55.515625 130.402344 57.226562 133.421875 57.519531 L 238.957031 67.78125 L 250.371094 143.988281 L 182.335938 143.988281 L 182.335938 163.183594 L 253.238281 163.183594 L 257.566406 191.972656 L 172.058594 191.972656 C 171.953125 191.234375 171.773438 190.511719 171.636719 189.785156 C 171.476562 188.871094 171.320312 187.96875 171.121094 187.078125 C 170.851562 185.847656 170.523438 184.640625 170.160156 183.441406 C 169.921875 182.605469 169.710938 181.761719 169.441406 180.9375 C 169.027344 179.667969 168.558594 178.441406 168.066406 177.203125 C 167.789062 176.492188 167.539062 175.761719 167.234375 175.054688 C 166.617188 173.625 165.925781 172.242188 165.21875 170.871094 C 164.96875 170.398438 164.765625 169.910156 164.507812 169.441406 C 163.511719 167.601562 162.429688 165.828125 161.261719 164.113281 C 161.0625 163.796875 160.820312 163.519531 160.601562 163.210938 C 159.640625 161.820312 158.683594 160.457031 157.558594 159.144531 C 157.117188 158.597656 156.601562 158.085938 156.160156 157.550781 C 155.265625 156.523438 154.375 155.503906 153.421875 154.546875 C 152.859375 153.96875 152.261719 153.433594 151.675781 152.875 C 150.71875 152.011719 149.84375 151.148438 148.882812 150.332031 C 148.230469 149.785156 147.570312 149.265625 146.898438 148.75 C 145.9375 147.992188 144.980469 147.261719 144.019531 146.5625 C 143.300781 146.050781 142.570312 145.601562 141.832031 145.101562 C 140.871094 144.449219 139.804688 143.824219 138.757812 143.183594 C 137.980469 142.742188 137.203125 142.320312 136.417969 141.90625 C 135.351562 141.347656 134.257812 140.832031 133.164062 140.332031 C 132.347656 139.96875 131.542969 139.601562 130.71875 139.265625 C 129.574219 138.804688 128.414062 138.394531 127.242188 138 C 126.417969 137.710938 125.601562 137.414062 124.757812 137.164062 C 123.519531 136.800781 122.261719 136.503906 121.007812 136.207031 C 120.191406 136.015625 119.382812 135.804688 118.558594 135.640625 C 117.148438 135.363281 115.679688 135.171875 114.277344 134.976562 C 113.570312 134.890625 112.878906 134.757812 112.160156 134.691406 C 109.980469 134.515625 107.78125 134.390625 105.566406 134.390625 C 102.25 134.414062 98.945312 134.6875 95.671875 135.207031 C 95.019531 135.304688 94.355469 135.390625 93.703125 135.507812 C 90.628906 136.050781 87.601562 136.808594 84.632812 137.78125 C 84.097656 137.953125 83.578125 138.164062 83.050781 138.355469 C 80.339844 139.320312 77.691406 140.460938 75.125 141.761719 C 74.777344 141.945312 74.40625 142.089844 74.058594 142.28125 C 73.097656 142.808594 72.140625 143.414062 71.179688 143.988281 L 19.191406 143.988281 L 19.191406 105.601562 Z M 50.519531 163.179688 C 48.78125 165.664062 47.214844 168.265625 45.835938 170.964844 C 45.558594 171.511719 45.296875 172.066406 45.027344 172.632812 C 43.648438 175.457031 42.46875 178.375 41.507812 181.367188 L 41.507812 181.472656 L 23.167969 163.179688 Z M 50.519531 163.179688 " style=" stroke:none;" />
<path d="M 422.257812 105.601562 L 441.453125 105.601562 L 441.453125 124.792969 L 422.257812 124.792969 Z M 422.257812 105.601562 " style=" stroke:none;" />
<path d="M 134.355469 86.40625 L 172.742188 86.40625 L 172.742188 105.601562 L 134.355469 105.601562 Z M 134.355469 86.40625 " style=" stroke:none;" />
<path d="M 287.902344 96.003906 L 326.289062 96.003906 L 326.289062 115.199219 L 287.902344 115.199219 Z M 287.902344 96.003906 " style=" stroke:none;" />
<path d="M 105.566406 172.777344 C 89.664062 172.777344 76.773438 185.667969 76.773438 201.566406 C 76.773438 217.46875 89.664062 230.359375 105.566406 230.359375 C 121.464844 230.359375 134.355469 217.46875 134.355469 201.566406 C 134.355469 185.667969 121.464844 172.777344 105.566406 172.777344 Z M 105.566406 211.164062 C 100.265625 211.164062 95.96875 206.867188 95.96875 201.570312 C 95.96875 196.269531 100.265625 191.972656 105.566406 191.972656 C 110.863281 191.972656 115.160156 196.269531 115.160156 201.570312 C 115.160156 206.867188 110.867188 211.164062 105.566406 211.164062 Z M 105.566406 211.164062 " style=" stroke:none;" />
<path d="M 499.035156 172.777344 C 483.132812 172.777344 470.242188 185.667969 470.242188 201.566406 C 470.242188 217.46875 483.132812 230.359375 499.035156 230.359375 C 514.933594 230.359375 527.824219 217.46875 527.824219 201.566406 C 527.824219 185.667969 514.933594 172.777344 499.035156 172.777344 Z M 499.035156 211.164062 C 493.734375 211.164062 489.4375 206.867188 489.4375 201.570312 C 489.4375 196.269531 493.734375 191.972656 499.035156 191.972656 C 504.335938 191.972656 508.628906 196.269531 508.628906 201.570312 C 508.628906 206.867188 504.332031 211.164062 499.035156 211.164062 Z M 499.035156 211.164062 " style=" stroke:none;" />
</g>
</svg>
