<?xml version="1.0"?>
<svg xmlns="http://www.w3.org/2000/svg" xmlns:xlink="http://www.w3.org/1999/xlink" xmlns:svgjs="http://svgjs.com/svgjs" version="1.1" width="512" height="512" x="0" y="0" viewBox="0 0 512.017 512.017" style="enable-background:new 0 0 512 512" xml:space="preserve" class=""><g>
<g xmlns="http://www.w3.org/2000/svg">
	<g>
		<path d="M96.017,352.009c-29.419,0-53.333,23.936-53.333,53.333s23.915,53.333,53.333,53.333    c29.419,0,53.333-23.936,53.333-53.333S125.436,352.009,96.017,352.009z M96.017,437.342c-17.643,0-32-14.357-32-32    c0-17.643,14.357-32,32-32c17.643,0,32,14.357,32,32C128.017,422.985,113.66,437.342,96.017,437.342z" fill="#a0a6ad" data-original="#000000" style="" class=""/>
	</g>
</g>
<g xmlns="http://www.w3.org/2000/svg">
	<g>
		<path d="M416.017,352.009c-29.419,0-53.333,23.936-53.333,53.333s23.915,53.333,53.333,53.333    c29.419,0,53.333-23.936,53.333-53.333S445.436,352.009,416.017,352.009z M416.017,437.342c-17.643,0-32-14.357-32-32    c0-17.643,14.357-32,32-32c17.643,0,32,14.357,32,32C448.017,422.985,433.66,437.342,416.017,437.342z" fill="#a0a6ad" data-original="#000000" style="" class=""/>
	</g>
</g>
<g xmlns="http://www.w3.org/2000/svg">
	<g>
		<path d="M373.351,288.009h-21.333c-5.888,0-10.667,4.779-10.667,10.667s4.779,10.667,10.667,10.667h21.333    c5.888,0,10.667-4.779,10.667-10.667S379.239,288.009,373.351,288.009z" fill="#a0a6ad" data-original="#000000" style="" class=""/>
	</g>
</g>
<g xmlns="http://www.w3.org/2000/svg">
	<g>
		<path d="M188.796,397.662c-4.032-3.84-10.88-3.84-14.933,0.213c-2.112,1.92-3.179,4.693-3.179,7.467s1.067,5.547,2.987,7.467    c2.133,2.133,4.907,3.2,7.68,3.2c2.773,0,5.547-1.067,7.467-3.2c2.133-1.92,3.2-4.693,3.2-7.467S190.951,399.795,188.796,397.662z    " fill="#a0a6ad" data-original="#000000" style="" class=""/>
	</g>
</g>
<g xmlns="http://www.w3.org/2000/svg">
	<g>
		<path d="M373.351,394.675H138.684c-5.888,0-10.667,4.779-10.667,10.667c0,5.888,4.779,10.667,10.667,10.667h234.667    c5.888,0,10.667-4.779,10.667-10.667C384.017,399.454,379.239,394.675,373.351,394.675z" fill="#a0a6ad" data-original="#000000" style="" class=""/>
	</g>
</g>
<g xmlns="http://www.w3.org/2000/svg">
	<g>
		<path d="M437.351,245.342h-74.667v-74.667c0-5.888-4.779-10.667-10.667-10.667c-5.888,0-10.667,4.779-10.667,10.667v85.333    c0,5.888,4.779,10.667,10.667,10.667h85.333c5.888,0,10.667-4.779,10.667-10.667C448.017,250.121,443.239,245.342,437.351,245.342    z" fill="#a0a6ad" data-original="#000000" style="" class=""/>
	</g>
</g>
<g xmlns="http://www.w3.org/2000/svg">
	<g>
		<path d="M506.13,169.545c3.605-1.813,5.888-5.504,5.888-9.536v-30.187c0-2.816-1.131-5.525-3.115-7.531    c-9.003-9.003-20.693-14.4-33.259-15.424l-40.341-38.443c-7.936-10.987-35.584-15.083-40.619-15.083h-128    c-5.888,0-10.667,4.779-10.667,10.667v245.333h-224c-4.885,0-9.173,3.328-10.368,8.085L0.316,402.761    c-0.789,3.2-0.085,6.571,1.941,9.152c2.027,2.581,5.141,4.096,8.427,4.096h42.667c5.888,0,10.667-4.779,10.667-10.667    c0-5.888-4.779-10.667-10.667-10.667H24.359l16-64h226.325c5.888,0,10.667-4.779,10.667-10.667V74.675h117.333    c5.269,0,20.715,4.181,24.619,7.701l44.501,42.667c1.984,1.899,4.629,2.965,7.381,2.965c7.147,0,13.931,2.325,19.499,6.613v18.795    l-15.445,7.723c-3.605,1.813-5.888,5.504-5.888,9.536v85.333c0,4.032,2.304,7.723,5.888,9.536l15.445,7.723v89.408    c0,17.643-14.357,32-32,32c-5.888,0-10.667,4.779-10.667,10.667c0,5.888,4.779,10.667,10.667,10.667    c29.419,0,53.333-23.936,53.333-53.333v-96c0-4.032-2.283-7.723-5.888-9.536l-15.445-7.723v-72.149L506.13,169.545z" fill="#a0a6ad" data-original="#000000" style="" class=""/>
	</g>
</g>
<g xmlns="http://www.w3.org/2000/svg">
	<g>
		<path d="M117.351,288.009H74.684c-5.888,0-10.667,4.779-10.667,10.667s4.779,10.667,10.667,10.667h42.667    c5.888,0,10.667-4.779,10.667-10.667S123.239,288.009,117.351,288.009z" fill="#a0a6ad" data-original="#000000" style="" class=""/>
	</g>
</g>
<g xmlns="http://www.w3.org/2000/svg">
	<g>
		<path d="M416.017,117.342H309.351c-5.888,0-10.667,4.779-10.667,10.667s4.779,10.667,10.667,10.667h106.667    c5.888,0,10.667-4.779,10.667-10.667S421.905,117.342,416.017,117.342z" fill="#a0a6ad" data-original="#000000" style="" class=""/>
	</g>
</g>
<g xmlns="http://www.w3.org/2000/svg">
</g>
<g xmlns="http://www.w3.org/2000/svg">
</g>
<g xmlns="http://www.w3.org/2000/svg">
</g>
<g xmlns="http://www.w3.org/2000/svg">
</g>
<g xmlns="http://www.w3.org/2000/svg">
</g>
<g xmlns="http://www.w3.org/2000/svg">
</g>
<g xmlns="http://www.w3.org/2000/svg">
</g>
<g xmlns="http://www.w3.org/2000/svg">
</g>
<g xmlns="http://www.w3.org/2000/svg">
</g>
<g xmlns="http://www.w3.org/2000/svg">
</g>
<g xmlns="http://www.w3.org/2000/svg">
</g>
<g xmlns="http://www.w3.org/2000/svg">
</g>
<g xmlns="http://www.w3.org/2000/svg">
</g>
<g xmlns="http://www.w3.org/2000/svg">
</g>
<g xmlns="http://www.w3.org/2000/svg">
</g>
</g></svg>
